PathFileType	4	(X/Y/Z)	C:/Users/opensim2020/Desktop/walking_exp_matlab/subject03_walking09_straight_02.trc	
DataRate	CameraRate	NumFrames	NumMarkers	Units	OrigDataRate	OrigDataStartFrame	OrigNumFrames	
100.00	100.00	7	47	mm	100.00	2109	364	
Frame#	Time	LFHD			RFHD			LBHD			RBHD			C7			T10			CLAV			STRN			RBAK			LSHO			LUPA			LELB			LFRM			LWRA			LWRB			LFIN			RSHO			RUPA			RELB			RFRM			RWRA			RWRB			RFIN			LASI			RASI			LPSI			RPSI			LTHI			LKNE			LTIB			LANK			LHEE			LTOE			RTHI			RKNE			RTIB			RANK			RHEE			RTOE			*39			*40			*41			*42			*43			*44			*45			*46			
		X1	Y1	Z1	X2	Y2	Z2	X3	Y3	Z3	X4	Y4	Z4	X5	Y5	Z5	X6	Y6	Z6	X7	Y7	Z7	X8	Y8	Z8	X9	Y9	Z9	X10	Y10	Z10	X11	Y11	Z11	X12	Y12	Z12	X13	Y13	Z13	X14	Y14	Z14	X15	Y15	Z15	X16	Y16	Z16	X17	Y17	Z17	X18	Y18	Z18	X19	Y19	Z19	X20	Y20	Z20	X21	Y21	Z21	X22	Y22	Z22	X23	Y23	Z23	X24	Y24	Z24	X25	Y25	Z25	X26	Y26	Z26	X27	Y27	Z27	X28	Y28	Z28	X29	Y29	Z29	X30	Y30	Z30	X31	Y31	Z31	X32	Y32	Z32	X33	Y33	Z33	X34	Y34	Z34	X35	Y35	Z35	X36	Y36	Z36	X37	Y37	Z37	X38	Y38	Z38	X39	Y39	Z39	X40	Y40	Z40	X41	Y41	Z41	X42	Y42	Z42	X43	Y43	Z43	X44	Y44	Z44	X45	Y45	Z45	X46	Y46	Z46	X47	Y47	Z47	

274	2.730	1481.62610	-463.03900	1627.58093	1349.68091	-442.62344	1626.15405	1497.77405	-335.00107	1586.62341	1367.41553	-319.91367	1584.87292	1441.32092	-297.26428	1421.41382	1441.29639	-270.48209	1106.57947	1437.17773	-420.93106	1347.45679	1448.05786	-468.01718	1183.88953	1347.36304	-247.60695	1241.45166	1593.21423	-382.32126	1386.36511	1665.31824	-394.57193	1190.87524	1676.20496	-413.65002	1068.79736	1672.98560	-454.04691	944.81537	1639.95618	-483.33160	829.94403	1692.90430	-465.32523	832.37799	1679.35779	-485.26044	749.70416	1278.42627	-372.22009	1364.64111	1211.53625	-379.75671	1139.60437	1201.72498	-398.49112	1027.99414	1202.52405	-416.88110	892.18854	1240.23511	-447.06351	797.48816	1195.18896	-417.24832	791.64618	1208.43958	-437.45990	719.68378	1565.80884	-430.61563	940.01917	1328.39014	-446.75510	948.17938	1505.41455	-271.83112	964.34998	1357.21423	-283.26987	979.47327	1615.80200	-367.03699	634.93567	1596.92737	-371.92444	454.74219	1579.95020	-217.61058	331.22852	1526.02429	-70.76761	190.44182	1479.95935	-26.60056	200.07649	1510.46716	-129.32962	51.80488	1285.30396	-404.49689	654.98804	1325.38293	-434.68887	476.59692	1322.94531	-408.87137	288.77560	1374.49133	-406.58289	73.21246	1426.02234	-363.23376	41.04950	1390.61218	-549.08246	38.37122																								 
275	2.740	1481.48022	-470.79816	1627.59705	1349.45581	-450.64511	1626.13684	1497.35925	-342.72647	1586.64343	1366.98145	-327.88089	1584.85413	1440.56091	-304.88385	1421.61926	1440.70337	-277.38721	1106.89966	1437.13977	-428.37360	1347.34229	1448.10156	-475.07632	1183.66553	1346.33704	-255.19899	1241.78137	1593.11987	-388.98273	1386.05969	1665.19788	-399.88632	1190.28979	1676.19421	-418.54221	1068.16479	1673.20007	-458.07324	943.87921	1640.41467	-486.23071	828.65979	1693.38184	-468.46329	831.43329	1680.29651	-487.70975	748.63367	1278.07104	-380.57529	1364.49963	1210.60620	-389.12418	1139.72595	1200.36523	-408.42072	1028.20789	1201.34900	-428.05872	892.54126	1239.28967	-458.74826	798.17535	1193.95471	-429.29565	792.03351	1207.00952	-450.56857	720.56036	1565.56360	-437.27707	939.97375	1327.95825	-454.08374	948.58105	1504.87256	-278.06952	964.04327	1356.53943	-290.34595	979.51038	1616.28784	-378.17538	635.20239	1598.06787	-387.62561	455.16638	1580.24902	-233.05032	332.82462	1526.30298	-85.19806	192.90758	1479.38245	-41.24966	201.90013	1514.07153	-144.86017	54.74374	1285.97498	-411.81281	655.27979	1325.24170	-439.31799	476.55823	1323.01428	-411.52505	288.79068	1374.73645	-406.71555	73.32391	1426.14563	-363.25955	41.13515	1390.65649	-549.17255	38.37164																								 
276	2.750	1481.37109	-478.62369	1627.62769	1349.33105	-458.84009	1626.07703	1496.98926	-350.50870	1586.66992	1366.57556	-336.01498	1584.77246	1439.94006	-312.38223	1422.04175	1440.04504	-284.17477	1107.15027	1437.07910	-435.71207	1347.30798	1448.11169	-482.06662	1183.57788	1345.28186	-262.41711	1242.31897	1593.05847	-395.58002	1385.87500	1665.16980	-404.87799	1189.78015	1676.24194	-423.24136	1067.59851	1673.47046	-461.98318	943.06067	1640.92944	-489.18484	827.54016	1693.90356	-471.51990	830.61969	1681.09045	-490.26709	747.74365	1277.86926	-388.97702	1364.51904	1209.81787	-398.45099	1139.87012	1199.19958	-418.47549	1028.55164	1200.24133	-439.23309	893.02356	1238.44128	-470.64191	799.34015	1192.80017	-441.41299	792.57556	1205.68774	-463.58041	721.62323	1565.10681	-443.73788	940.06488	1327.44128	-461.28491	948.93097	1504.06580	-285.02887	963.29053	1355.90063	-297.40051	979.43475	1616.09534	-389.74319	635.70148	1599.02258	-403.28427	456.01376	1580.74109	-248.79175	334.02109	1526.62964	-100.80475	194.63774	1479.29211	-56.56638	202.81165	1517.00769	-161.37114	57.00127	1285.68701	-417.93924	655.10828	1325.24438	-443.87442	476.39099	1323.22742	-414.15390	288.77454	1374.96973	-406.98264	73.35485	1426.30054	-363.32797	41.21581	1390.70862	-549.23969	38.36451	1436.99695	-392.31317	1687.83337																					 
277	2.760	1481.40637	-486.43057	1627.55188	1349.30920	-467.01520	1626.04199	1496.70142	-358.23450	1586.79675	1366.14734	-344.08127	1584.86157	1439.36462	-319.89804	1422.29102	1439.42322	-291.03769	1107.44019	1437.13818	-442.85608	1347.24976	1448.20093	-488.90186	1183.44751	1344.47705	-269.74149	1242.89453	1593.01172	-401.91888	1385.71765	1665.27271	-409.65369	1189.47485	1676.39856	-427.70474	1067.22961	1673.64978	-465.65750	942.40533	1641.40002	-491.97034	826.68311	1694.48608	-474.47165	830.02258	1682.00818	-493.02872	747.19281	1277.70972	-397.28363	1364.57373	1209.14612	-407.89331	1140.14612	1198.58643	-428.82278	1028.96118	1199.27979	-450.57059	893.68176	1237.69153	-481.90182	800.06775	1191.58118	-453.49673	793.26862	1204.35364	-476.90961	722.74670	1564.85461	-450.29318	940.40771	1326.97559	-468.35202	949.21417	1503.30676	-291.59357	963.06110	1355.18604	-304.40628	979.30981	1615.85632	-401.43805	636.39392	1599.74866	-418.68652	457.00940	1581.34314	-264.94290	334.72189	1527.19653	-117.10560	195.35808	1479.58899	-72.45378	202.66002	1519.18103	-178.83208	58.46146	1285.57764	-424.20032	655.10492	1325.26196	-448.47028	476.26645	1323.48193	-416.93283	288.77811	1375.17529	-407.20062	73.35702	1426.22095	-363.22083	41.25591	1390.82556	-549.32898	38.35183	1436.80383	-401.12741	1688.33252																					 
278	2.770	1481.43958	-494.32318	1627.52698	1349.26978	-475.20798	1625.95178	1496.45447	-365.94553	1587.04285	1365.93420	-352.14813	1585.12195	1438.94983	-327.16077	1422.78345	1438.63892	-297.80273	1107.76440	1437.27441	-450.02505	1347.30579	1448.24475	-495.73407	1183.45508	1343.72888	-277.10300	1243.39417	1592.97705	-408.38489	1385.68286	1665.37183	-414.29581	1189.30164	1676.54443	-432.02478	1066.98901	1674.06128	-469.28351	941.96954	1641.89014	-494.91269	826.00879	1694.92969	-477.49149	829.63275	1682.96375	-495.98193	746.90863	1277.62012	-405.31982	1364.79846	1208.61365	-417.41971	1140.60999	1197.83728	-439.10574	1029.62183	1198.37695	-461.81372	894.50769	1236.73547	-493.93707	801.22998	1190.64441	-465.84250	794.21735	1203.05225	-490.13538	724.14771	1564.27881	-456.75348	941.03119	1326.41638	-475.19287	949.37122	1502.53040	-298.12970	963.13763	1354.36267	-310.97794	979.25671	1615.89575	-412.63431	637.06561	1600.34875	-434.06885	458.21954	1581.87268	-281.37604	335.07825	1527.87256	-134.05354	195.16917	1480.22644	-88.95137	201.49101	1520.99988	-198.23358	59.79497	1284.98999	-430.04071	654.86053	1325.40381	-453.17856	476.05588	1323.68811	-419.83102	288.73047	1375.39856	-407.40259	73.52168	1426.22046	-363.23508	41.21730	1390.89771	-549.39490	38.33153																								 
279	2.780	1481.59900	-502.28531	1627.40320	1349.39233	-483.53616	1625.84167	1496.30481	-373.76044	1587.40662	1365.71887	-360.23108	1585.47693	1438.38953	-334.48007	1422.99890	1438.10107	-304.32336	1108.43372	1437.37854	-457.13431	1347.40515	1448.33142	-502.47580	1183.48328	1343.01147	-284.49121	1243.90210	1593.00830	-414.60223	1385.88647	1665.52905	-418.81686	1189.29993	1676.79956	-436.12570	1066.94629	1674.34692	-472.85419	941.75610	1642.37463	-497.90921	825.64716	1695.51941	-480.37854	829.50464	1683.82910	-499.06284	746.82489	1277.57666	-413.45746	1365.12024	1208.16858	-426.84656	1141.17017	1197.17224	-449.40454	1030.45386	1197.55762	-473.13797	895.51013	1235.95276	-505.62051	802.39862	1189.56580	-478.08316	795.30756	1201.83911	-503.38727	725.74939	1563.74622	-463.33826	941.87488	1325.88879	-482.09097	949.39417	1501.79846	-304.66428	963.36127	1353.71924	-318.08524	979.11865	1615.57556	-424.15677	637.87274	1600.72192	-449.25800	459.48083	1582.36316	-298.20975	334.99173	1528.67639	-151.77411	194.07739	1481.41113	-106.02744	199.24072	1522.22791	-219.58424	60.59989	1285.39063	-436.44781	654.56104	1325.65930	-457.86722	475.76437	1323.86694	-422.79849	288.62564	1375.64197	-407.58600	73.76928	1426.60474	-363.89117	41.30592	1390.98425	-549.46716	38.33563	1437.64453	-413.41055	1688.33740																					 
280	2.790	1481.79883	-510.27264	1627.22266	1349.58423	-491.86386	1625.71924	1496.21558	-381.49023	1587.90967	1365.61548	-368.35251	1586.02722	1438.01282	-341.66986	1423.32092	1437.07971	-311.32498	1108.49390	1437.54919	-464.17969	1347.42969	1448.41699	-509.12863	1183.44775	1342.31641	-291.72870	1244.49255	1592.99829	-420.75507	1386.04651	1665.68298	-423.26132	1189.35144	1677.06348	-439.99377	1066.92688	1674.83521	-476.31412	941.67352	1643.03491	-501.21832	825.49805	1695.91235	-483.41309	829.36261	1684.69995	-502.22522	746.88684	1277.54858	-421.23181	1365.53711	1207.80762	-436.33060	1141.89600	1196.73962	-459.70889	1031.40283	1196.84485	-484.56775	896.71008	1235.25598	-517.49255	803.79950	1188.60596	-490.34961	796.58087	1200.74036	-516.50067	727.38074	1563.32764	-469.94131	942.74591	1325.36438	-488.87955	949.37250	1501.05481	-311.20956	963.69354	1352.96460	-325.01837	978.96393	1614.72571	-436.29214	638.75507	1600.73181	-464.48358	460.98605	1582.80713	-315.26010	334.63101	1529.57068	-170.22551	192.18501	1482.55212	-123.46136	195.93306	1522.83374	-241.55414	60.96008	1285.56580	-441.73090	654.71393	1325.94275	-462.66736	475.51190	1324.10925	-425.76813	288.51541	1375.82068	-407.79532	73.88719	1426.66187	-363.90948	41.45168	1391.09680	-549.54382	38.33216	1437.49243	-421.78522	1688.42065																					 
